<?xml version="1.0" encoding="UTF-8"?>
<svg id="Layer_1" data-name="Layer 1" xmlns="http://www.w3.org/2000/svg" viewBox="0 0 214.3 126">
  <defs>
    <style>
      .cls-1 {
        fill: #00bad3;
      }
    </style>
  </defs>
  <path d="M98.8,44.1c0-11.4,3.9-21.9,10.5-30.6v-7.7h-27.5v78.4h-.5L33.1,5.8H0v120.2h27.5V47.4h.5l48.4,78.6h32.9v-51.3c-6.6-8.7-10.5-19.2-10.5-30.6Z"/>
  <path class="cls-1" d="M214.3,43.8c0,7.3-1.3,13.9-3.8,19.8-2.5,6-5.8,12-9.9,18.1l-29.6,44.2h-35.2l30.5-42.3.3-.5c-1.3.5-2.7.8-4.2,1-1.6.2-3,.3-4.4.3-5.4,0-10.6-1-15.4-2.9-4.8-1.9-9.1-4.6-12.8-8.1-3.7-3.5-6.6-7.7-8.8-12.7-2.2-4.9-3.3-10.4-3.3-16.4s1.3-13.2,3.8-18.7c2.5-5.5,6-10.2,10.4-14,4.4-3.8,9.5-6.7,15.4-8.8,5.9-2,12.1-3,18.7-3s13,1,18.9,3c5.9,2,11,4.9,15.3,8.8,4.3,3.8,7.8,8.4,10.3,13.9,2.5,5.4,3.8,11.5,3.8,18.2ZM185.3,43.5c0-5.3-1.7-9.9-5.1-13.8-3.4-3.9-8.1-5.8-14-5.8s-10.6,1.8-14.2,5.5c-3.5,3.6-5.3,8.4-5.3,14.3s1.7,10.1,5.2,13.8c3.5,3.6,8.1,5.5,13.9,5.5s10.5-1.8,14.1-5.4c3.6-3.6,5.4-8.3,5.4-14Z"/>
</svg>